<svg xmlns="http://www.w3.org/2000/svg" viewBox="0 0 32 32"><path d="M18.985 7.99c-1.11 0-2-.89-2-2 0-1.11.89-2 2-2 1.11 0 2 .89 2 2 0 1.11-.89 2-2 2Zm-5.98 0c-1.09 0-1.98-.88-1.98-1.98s.88-1.98 1.98-1.98 1.98.88 1.98 1.98-.88 1.98-1.98 1.98Zm-1.96 2.02h4v18h-4v-18Zm6 0h4v18h-4v-18Zm-9.05 10.95c-.64.64-1.52 1.03-2.49 1.03a3.505 3.505 0 0 1-2.338-.887l-.152-.143c-.33-.33-.58-.7-.75-1.11a3.489 3.489 0 0 1-.272-1.137l-.008-.243c0-.9.34-1.8 1.03-2.49l6.01-6.01v8.5c0 .895-.332 1.714-.887 2.338l-.143.152Zm22.01-2.54c0 .89-.34 1.78-1.02 2.46a3.466 3.466 0 0 1-2.238 1.013l-.222.007c-.46 0-.9-.09-1.3-.25a3.504 3.504 0 0 1-.985-.607l-.175-.163a3.47 3.47 0 0 1-1.02-2.46v-8.41l5.95 5.95c.68.68 1.02 1.57 1.02 2.46h-.01Z"/></svg>