<svg xmlns="http://www.w3.org/2000/svg" viewBox="0 0 32 32"><path d="M22.505 7.985c-1.11 0-2-.89-2-2 0-1.11.89-2 2-2 1.11 0 2 .89 2 2 0 1.11-.89 2-2 2Zm-5.97 0c-1.09 0-1.98-.88-1.98-1.98s.88-1.98 1.98-1.98 1.98.88 1.98 1.98-.88 1.98-1.98 1.98Zm4 2.03-10 18h-4l10-18h4Zm-14.55-.01h8.41l-5.95 5.95a3.466 3.466 0 0 1-2.238 1.013l-.222.007c-.49 0-.95-.1-1.37-.28a3.538 3.538 0 0 1-.897-.556l-.203-.184a3.47 3.47 0 0 1-1.02-2.46c0-.96.39-1.83 1.02-2.46a3.47 3.47 0 0 1 2.46-1.02l.01-.01Zm23.51 8.46c0 .89-.34 1.78-1.02 2.46a3.466 3.466 0 0 1-2.238 1.013l-.222.007c-.46 0-.9-.09-1.3-.25a3.504 3.504 0 0 1-.985-.607l-.175-.163a3.47 3.47 0 0 1-1.02-2.46v-8.41l5.95 5.95c.68.68 1.02 1.57 1.02 2.46h-.01Z"/></svg>