<svg xmlns="http://www.w3.org/2000/svg" viewBox="0 0 32 32"><path d="m22.97 9.995-5.98 18H13l5.98-18h3.99Zm-6 0-5.98 18H7l5.98-18h3.99Zm-11.48-8c.46 0 .91.09 1.31.25a3.44 3.44 0 0 1 1 .612l.18.168c.64.64 1.03 1.52 1.03 2.49v8.5L3 8.005a3.505 3.505 0 0 1-1.03-2.49c0-.9.34-1.8 1.03-2.49a3.501 3.501 0 0 1 2.282-1.024l.208-.006Zm15.49 1.98c1.11 0 2 .89 2 2 0 1.11-.89 2-2 2-1.11 0-2-.89-2-2 0-1.11.89-2 2-2Zm-5.97.04c1.1 0 1.98.88 1.98 1.98s-.88 1.98-1.98 1.98c-1.09 0-1.98-.88-1.98-1.98s.88-1.98 1.98-1.98Zm15.02 22.47c0 .9-.34 1.8-1.03 2.49a3.501 3.501 0 0 1-2.282 1.024l-.208.006c-.46 0-.91-.09-1.31-.25a3.44 3.44 0 0 1-1-.613l-.18-.167a3.507 3.507 0 0 1-1.03-2.49v-8.5l6.01 6.01a3.501 3.501 0 0 1 1.024 2.282l.006.208Z"/></svg>