<svg xmlns="http://www.w3.org/2000/svg" viewBox="0 0 32 32"><path d="M19.065 18.06c1.11 0 2 .89 2 2 0 1.11-.89 2-2 2-1.11 0-2-.89-2-2 0-1.11.89-2 2-2Zm-6 0c1.11 0 2 .89 2 2 0 1.11-.89 2-2 2-1.11 0-2-.89-2-2 0-1.11.89-2 2-2Zm12.05-8.83c.41 0 .79.08 1.15.23.264.112.522.269.752.465l.168.155c.53.53.86 1.26.86 2.06s-.33 1.53-.86 2.06-1.26.86-2.06.86h-7.05l4.98-4.98a2.903 2.903 0 0 1 1.858-.843l.202-.007Zm-5.25-5.29c.75 0 1.49.29 2.06.85.57.56.85 1.32.85 2.06s-.28 1.49-.85 2.06l-.01.02-4.98 4.98V6.86c0-.733.277-1.408.732-1.923l.128-.137c.29-.29.62-.5.98-.65.272-.112.557-.18.86-.202l.23-.008Zm-13 5.42c.74 0 1.49.28 2.06.85l4.99 4.98h-7.05a2.905 2.905 0 0 1-1.923-.732l-.137-.128c-.29-.29-.5-.62-.64-.97a2.774 2.774 0 0 1-.202-.86l-.008-.23c0-.75.28-1.49.85-2.06.57-.57 1.32-.85 2.06-.85Zm5.28-5.27c.8 0 1.53.33 2.06.86s.86 1.26.86 2.06v7.04l-4.98-4.98a2.903 2.903 0 0 1-.843-1.858l-.007-.202c0-.41.08-.79.23-1.15.112-.264.269-.522.465-.752l.155-.168c.53-.53 1.26-.85 2.06-.85Zm-2.99 23.97v-4h13.91v4H9.155Z"/></svg>