<svg xmlns="http://www.w3.org/2000/svg" viewBox="0 0 32 32"><path d="M18.985 7c-1.11 0-2-.89-2-2 0-1.11.89-2 2-2 1.11 0 2 .89 2 2 0 1.11-.89 2-2 2Zm-5.95 0c-1.09 0-1.98-.88-1.98-1.98s.88-1.98 1.98-1.98 1.98.88 1.98 1.98S14.135 7 13.035 7Zm.95 2h4v20h-4V9Zm15.13 8.84c.53.53.86 1.26.86 2.06 0 .733-.277 1.408-.732 1.923l-.128.137c-.27.27-.58.48-.92.62-.28.12-.586.195-.907.22l-.243.01c-.75 0-1.49-.29-2.06-.85l-4.98-4.98h7.05c.733 0 1.408.277 1.923.732l.137.128Zm-2.06-2.86h-7.05l4.98-4.98a2.903 2.903 0 0 1 1.858-.843l.202-.007c.41 0 .79.08 1.15.23.264.112.522.269.752.465l.168.155c.53.53.86 1.26.86 2.06s-.33 1.53-.86 2.06-1.26.86-2.06.86Zm-22.11 2.01h7.05l-4.98 4.98a2.903 2.903 0 0 1-1.858.843l-.202.007c-.41 0-.79-.08-1.15-.23a2.935 2.935 0 0 1-.752-.465l-.168-.155c-.53-.53-.86-1.26-.86-2.06s.33-1.53.86-2.06a2.917 2.917 0 0 1 1.862-.853l.198-.007Zm-2.06-2.87c-.53-.53-.86-1.26-.86-2.06 0-.733.277-1.408.732-1.923L2.885 10c.27-.27.58-.48.92-.62.28-.12.586-.195.907-.22l.243-.01c.75 0 1.49.29 2.06.85l4.98 4.98h-7.05c-.8 0-1.53-.33-2.06-.86Z"/></svg>