<svg xmlns="http://www.w3.org/2000/svg" viewBox="0 0 32 32"><path d="M19.06 9.99c-1.11 0-2-.89-2-2 0-1.11.89-2 2-2 1.11 0 2 .89 2 2 0 1.11-.89 2-2 2Zm-5.98 0c-1.09 0-1.98-.88-1.98-1.98s.88-1.98 1.98-1.98 1.98.88 1.98 1.98-.88 1.98-1.98 1.98Zm7.99 2.03v4H11.06v-4h10.01Zm-.01 6v4H11.05v-4h10.01Zm0 6v4H11.05v-4h10.01ZM1.99 7.5c0-.9.34-1.8 1.03-2.49a3.501 3.501 0 0 1 2.282-1.024l.208-.006c.46 0 .91.09 1.31.25a3.44 3.44 0 0 1 1 .612L8 5.01c.64.64 1.03 1.52 1.03 2.49V16L3.02 9.99A3.505 3.505 0 0 1 1.99 7.5ZM29 9.99l-5.95 5.95V7.52c0-.886.332-1.696.879-2.31l.141-.15c.34-.34.74-.6 1.16-.77a3.496 3.496 0 0 1 1.072-.243l.228-.007c.89 0 1.78.34 2.46 1.02.68.68 1.02 1.57 1.02 2.46 0 .89-.34 1.78-1.02 2.46l.01.01Z"/></svg>