<svg xmlns="http://www.w3.org/2000/svg" viewBox="0 0 32 32"><path d="m16.04 20.019-3.3 7.83c-.38.89-1.08 1.55-1.92 1.89a3.52 3.52 0 0 1-4.496-1.749L6.24 27.8c-.17-.43-.26-.87-.26-1.31 0-.383.063-.774.193-1.154l.087-.226c.35-.83 1.02-1.53 1.91-1.89l7.87-3.2Zm-8.05-9.01 16.03 5.98v4l-16.03-5.97v-4.01Zm-4 2.49c1.11 0 2 .89 2 2 0 1.11-.89 2-2 2-1.11 0-2-.89-2-2 0-1.11.89-2 2-2Zm.02-5.96c1.1 0 1.98.89 1.98 1.98 0 1.1-.88 1.98-1.98 1.98s-1.98-.88-1.98-1.98.88-1.98 1.98-1.98Zm19.345-5.423.215.063c.47.15.88.39 1.23.69.264.232.496.502.686.811l.134.239c.41.8.51 1.76.21 2.68-.3.92-.95 1.64-1.75 2.05-.8.41-1.76.51-2.68.21v.01l-8.08-2.62 7.57-3.86a3.495 3.495 0 0 1 2.246-.322l.22.049Zm6.655 19.383c0-1.11-.89-2-2-2-1.11 0-2 .89-2 2 0 1.11.89 2 2 2 1.11 0 2-.89 2-2Zm0-5.98c0-1.09-.88-1.98-1.98-1.98s-1.98.88-1.98 1.98.88 1.98 1.98 1.98 1.98-.88 1.98-1.98Z"/></svg>