<svg xmlns="http://www.w3.org/2000/svg" viewBox="0 0 32 32"><path d="M15 20.01v7.05c0 .8-.33 1.53-.86 2.06s-1.26.86-2.06.86a2.905 2.905 0 0 1-1.923-.732l-.137-.128a2.82 2.82 0 0 1-.62-.92 2.871 2.871 0 0 1-.22-.907l-.01-.243c0-.75.28-1.49.85-2.06L15 20.01Zm2 7.04v-7.04l4.98 4.98c.518.518.797 1.185.843 1.858l.007.202c0 .41-.08.79-.23 1.15a2.935 2.935 0 0 1-.465.752l-.155.168a2.911 2.911 0 0 1-4.12-.01c-.53-.53-.86-1.26-.86-2.06ZM4.94 17.01h7.05l-4.98 4.98a2.903 2.903 0 0 1-1.858.843l-.202.007c-.41 0-.79-.08-1.15-.23a2.935 2.935 0 0 1-.752-.465l-.168-.155c-.53-.53-.86-1.26-.86-2.06s.33-1.53.86-2.06 1.26-.86 2.06-.86ZM27.06 17c.8 0 1.53.33 2.06.86s.86 1.26.86 2.06c0 .733-.277 1.408-.732 1.923l-.128.137c-.27.27-.58.48-.92.62-.28.12-.586.195-.907.22l-.243.01c-.75 0-1.49-.29-2.06-.85L20.01 17h7.05ZM16 14.02c1.11 0 2 .89 2 2 0 1.11-.89 2-2 2-1.11 0-2-.89-2-2 0-1.11.89-2 2-2Zm11.04-4.85c.41 0 .79.08 1.15.23.264.112.522.269.752.465l.168.155c.53.53.86 1.26.86 2.06s-.33 1.53-.86 2.06-1.26.86-2.06.86H20l4.98-4.98a2.903 2.903 0 0 1 1.858-.843l.202-.007Zm-22.09 0c.75 0 1.49.29 2.06.85L11.99 15H4.94c-.8 0-1.53-.33-2.06-.86s-.86-1.26-.86-2.06c0-.733.277-1.408.732-1.923l.128-.137c.27-.27.58-.48.92-.62.28-.12.586-.195.907-.22l.243-.01Zm7.12-7.13c.8 0 1.53.33 2.06.86s.86 1.26.86 2.06V12l-4.98-4.98a2.903 2.903 0 0 1-.843-1.858L9.16 4.96c0-.41.08-.79.23-1.15.112-.264.269-.522.465-.752l.155-.168c.53-.53 1.26-.85 2.06-.85Zm7.85-.02c.733 0 1.408.277 1.923.732l.137.128c.27.27.48.58.62.92.12.28.195.586.22.907l.01.243c0 .75-.28 1.49-.85 2.06L17 11.99V4.94c0-.8.33-1.53.86-2.06s1.26-.86 2.06-.86Z"/></svg>