<svg xmlns="http://www.w3.org/2000/svg" viewBox="0 0 32 32"><path d="M12.995 8.955c1.11 0 2 .89 2 2 0 1.11-.89 2-2 2-1.11 0-2-.89-2-2 0-1.11.89-2 2-2Zm-8.06-3.92h7.05l-4.98 4.98a2.903 2.903 0 0 1-1.858.843l-.202.007c-.41 0-.79-.08-1.15-.23a2.935 2.935 0 0 1-.752-.465l-.168-.155c-.53-.53-.86-1.26-.86-2.06s.33-1.53.86-2.06 1.26-.86 2.06-.86Zm14.06 3.92c1.11 0 2 .89 2 2 0 1.11-.89 2-2 2-1.11 0-2-.89-2-2 0-1.11.89-2 2-2Zm8.07-3.92c.8 0 1.53.33 2.06.86s.86 1.26.86 2.06c0 .733-.277 1.408-.732 1.923l-.128.137c-.27.27-.58.48-.92.62-.28.12-.586.195-.907.22l-.243.01c-.75 0-1.49-.29-2.06-.85l-4.98-4.98h7.05Zm-4.07 11.9v4h-14v-4h14Zm0 6.03v4h-14v-4h14Z"/></svg>