<svg xmlns="http://www.w3.org/2000/svg" viewBox="0 0 32 32"><path d="M13.05 17.975c-1.11 0-2-.89-2-2 0-1.11.89-2 2-2 1.11 0 2 .89 2 2 0 1.11-.89 2-2 2Zm6 0c-1.11 0-2-.89-2-2 0-1.11.89-2 2-2 1.11 0 2 .89 2 2 0 1.11-.89 2-2 2ZM4 25.045v-7.05l4.98 4.98c.518.518.797 1.185.843 1.858l.007.202c0 .41-.08.79-.23 1.15a2.935 2.935 0 0 1-.465.752l-.155.168a2.911 2.911 0 0 1-4.12-.01 2.917 2.917 0 0 1-.853-1.862L4 25.045Zm5.07-16.03-4.98 4.98v-7.05c0-.733.277-1.408.732-1.923l.128-.137c.29-.29.62-.5.98-.65.272-.112.557-.18.86-.202l.23-.008c.75 0 1.49.29 2.06.85.57.56.85 1.32.85 2.06s-.28 1.49-.85 2.06l-.01.02ZM28 6.955v7.05l-4.98-4.98a2.903 2.903 0 0 1-.843-1.858l-.007-.202c0-.41.08-.79.23-1.15.112-.264.269-.522.465-.752l.155-.168a2.911 2.911 0 0 1 4.12.01c.486.486.804 1.14.853 1.862l.007.188Zm-4.98 16.03 4.98-4.98v7.05c0 .733-.277 1.408-.732 1.923l-.128.137c-.29.29-.62.5-.98.65-.272.112-.557.18-.86.202l-.23.008c-.75 0-1.49-.29-2.06-.85a2.89 2.89 0 0 1-.85-2.06c0-.74.28-1.49.85-2.06l.01-.02Z"/></svg>