<svg xmlns="http://www.w3.org/2000/svg" viewBox="0 0 32 32"><path d="M19.485 8.03c-1.11 0-2-.89-2-2 0-1.11.89-2 2-2 1.11 0 2 .89 2 2 0 1.11-.89 2-2 2Zm-7 0c-1.11 0-2-.89-2-2 0-1.11.89-2 2-2 1.11 0 2 .89 2 2 0 1.11-.89 2-2 2Zm5.03 14.67V9.97l8.91 9a5.28 5.28 0 0 1 1.523 3.46l.007.27c0 .73-.15 1.43-.42 2.07a5.157 5.157 0 0 1-.907 1.445l-.203.215c-.94.95-2.25 1.54-3.69 1.54s-2.74-.59-3.69-1.55a5.264 5.264 0 0 1-1.523-3.458l-.007-.262Zm-4.56 3.72c-.94.95-2.25 1.55-3.69 1.55a5.159 5.159 0 0 1-3.508-1.374l-.182-.176c-.49-.49-.86-1.05-1.11-1.66a5.28 5.28 0 0 1-.41-1.756l-.01-.314c0-1.35.51-2.7 1.53-3.73l8.91-9v12.73c0 1.45-.59 2.77-1.53 3.73Z"/></svg>