<svg xmlns="http://www.w3.org/2000/svg" viewBox="0 0 24 24">
  <path d="M18 8.4v10.5a4.34 4.34 0 0 1-7.43 3.07 4.35 4.35 0 0 1 0-6.15L18 8.4Zm-1.5 3.62-4.86 4.86a2.85 2.85 0 1 0 4.86 2.01v-6.87Zm-.02-5.14-7.43 7.43a4.33 4.33 0 0 1-6.15 0 4.33 4.33 0 0 1 0-6.15 4.34 4.34 0 0 1 3.08-1.28h10.5ZM12.85 8.4H5.98c-1.19 0-2.2.73-2.64 1.76l.01-.01A2.85 2.85 0 0 0 8 13.25l4.86-4.86Zm7.1.26a1.5 1.5 0 1 1 2.12-2.13 1.5 1.5 0 0 1-2.13 2.13Zm-3.72-3.72a1.5 1.5 0 1 1 2.13-2.12 1.5 1.5 0 0 1-2.13 2.12Z"/>
</svg>