<svg xmlns="http://www.w3.org/2000/svg" viewBox="0 0 341.64 118.56" width="341.64" height="118.56"><rect width="124" height="48" x="146.91" y="66.11" rx="8"/><path d="m290.81 45.4 46.1 45.81a16 16 0 1 1-22.55 22.7l-46.1-45.82a16 16 0 1 1 22.55-22.7Zm34.8 50.5a1 1 0 0 0-1 1l.02 4.66-4.65.02a1 1 0 0 0 0 2l4.66-.02.01 4.66a1 1 0 0 0 2 0l-.01-4.66 4.66-.01a1 1 0 0 0-.01-2h-4.66l-.01-4.65a1 1 0 0 0-1-1Zm-46.09-41.99a2 2 0 0 0-2.82 2.84l36.18 35.95a2 2 0 1 0 2.82-2.84l-36.18-35.95ZM168.58 39.25a16 16 0 0 1-6.44 21.7L67.2 112.41a16 16 0 1 1-15.25-28.13l94.94-51.48a16 16 0 0 1 21.7 6.44Zm-26.37 14.3a2 2 0 0 0-2.71-.8l-82.64 44.8a2 2 0 0 0 1.9 3.51l82.64-44.8a2 2 0 0 0 .8-2.71Zm14.2-13.06a1 1 0 0 0-1.24.68l-1.33 4.46-4.46-1.32a1 1 0 0 0-.57 1.91l4.46 1.33-1.32 4.46a1 1 0 1 0 1.92.57l1.32-4.46 4.46 1.32a1 1 0 1 0 .57-1.91l-4.46-1.33 1.33-4.46a1 1 0 0 0-.68-1.25Z"/><path d="M134.9 90.11a12 12 0 1 1 0 24h-24a12 12 0 1 1 0-24h24Zm0 3a9 9 0 1 0 0 18 9 9 0 0 0 0-18Zm-20.88-86.6 19.92 13.4a12 12 0 0 1-13.4 19.92l-19.91-13.4a12 12 0 1 1 13.4-19.91Zm-1.67 2.5a9 9 0 1 0-10.05 14.93 9 9 0 0 0 10.05-14.93Z"/><path d="M15.86 112.68c.73.49 1.54.8 2.4.93l-.3 1.98a7.96 7.96 0 0 1-3.2-1.24l1.1-1.67Zm7.24-.46 1.31 1.5a7.96 7.96 0 0 1-3.01 1.65l-.55-1.93c.83-.23 1.6-.65 2.25-1.22Zm-11.6-3.4 2.22 2.02-1.34 1.48-2.22-2.01 1.34-1.48Zm15.58-.93 1.48 1.34-2.01 2.22-1.48-1.34 2.01-2.22Zm-20.03-3.1 2.23 2.02-1.35 1.48-2.22-2.01 1.34-1.48Zm24.06-1.35 1.48 1.34-2.01 2.23-1.48-1.35 2-2.22ZM2.95 100.8a6 6 0 0 0 1.02 1.2l.86.78-1.34 1.49-.86-.78a8 8 0 0 1-1.36-1.6l1.68-1.09ZM35.14 99l1.48 1.34-2.01 2.22-1.49-1.34 2.02-2.23ZM.36 95.16l1.91.6c-.26.82-.33 1.7-.22 2.56l-1.98.25a8.02 8.02 0 0 1 .3-3.41Zm38.8-.62 1.49 1.34-2.02 2.22-1.48-1.34 2.01-2.22Zm4.03-4.45 1.48 1.34-2 2.23-1.5-1.35 2.02-2.22Zm-39.16-.07 1.48 1.34-1.96 2.16-.05.06L2 92.26l.07-.07 1.96-2.16Zm43.19-4.38L48.7 87l-2.01 2.23-1.48-1.34 2.01-2.23Zm-39.16-.07 1.48 1.34-2.02 2.23-1.48-1.35 2.02-2.22Zm43.19-4.37 1.48 1.34-2.01 2.22-1.49-1.34 2.02-2.22Zm-39.17-.08 1.49 1.35-2.02 2.22-1.48-1.34 2.01-2.23Zm43.2-4.37 1.48 1.34-2.02 2.22-1.48-1.34 2.02-2.22Zm-39.17-.07 1.48 1.34-2.01 2.22-1.48-1.34 2.01-2.22Zm43.2-4.38 1.48 1.34-2.02 2.23-1.48-1.35 2.01-2.22Zm-39.17-.07 1.48 1.34-2.01 2.23-1.48-1.35 2-2.22Zm43.2-4.38 1.47 1.35-2.01 2.22-1.48-1.34 2.01-2.23Zm-39.17-.07 1.48 1.34-2.01 2.23-1.49-1.34 2.02-2.23Zm43.19-4.37 1.48 1.34-2.01 2.22-1.49-1.34 2.02-2.22Zm-39.17-.08 1.49 1.35-2.02 2.22-1.48-1.34 2.01-2.23Zm43.2-4.37 1.48 1.34-2.02 2.23-1.48-1.35 2.02-2.22Zm-39.17-.07 1.48 1.34-2 2.22-1.5-1.34 2.02-2.22Zm43.2-4.38 1.48 1.34-2.02 2.23-1.48-1.34 2.01-2.23Zm-39.17-.07 1.48 1.34-2.01 2.23-1.48-1.35 2.01-2.22Zm43.2-4.38 1.47 1.35-2.01 2.22-1.48-1.34 2.01-2.23ZM40.27 50l1.48 1.35-2.01 2.22-1.49-1.34L40.28 50Zm43.19-4.37 1.48 1.34-2.01 2.22-1.48-1.34 2-2.22Zm-39.16-.07 1.48 1.34-2.02 2.22-1.48-1.34 2.02-2.22Zm43.19-4.38 1.48 1.34-2.01 2.23-1.49-1.35 2.02-2.22Zm-39.17-.07 1.49 1.34-2.02 2.23-1.48-1.35 2.01-2.22Zm43.2-4.38L93 38.08l-2.02 2.22-1.48-1.34 2.01-2.23Zm-39.17-.07L53.84 38l-2.01 2.23-1.48-1.34 2.01-2.23Zm43.2-4.37 1.47 1.34-2 2.22-1.5-1.34 2.02-2.22Zm-39.17-.08 1.48 1.35-2.01 2.22-1.49-1.34 2.02-2.23Zm39.26-.03 1.51 1.3-.12.15-1.49-1.35.1-.1Zm-35.23-4.41 1.48 1.34-2.02 2.22L58.4 30l2.02-2.22Zm38.6-.63a8.03 8.03 0 0 1-.25 3.41l-1.92-.57c.25-.83.32-1.7.2-2.57l1.98-.27Zm-34.58-3.82 1.49 1.34-2.02 2.23-1.48-1.35 2.01-2.22Zm31.12-1.82.92.83c.5.45.94.97 1.3 1.52l-1.66 1.1c-.28-.41-.6-.8-.99-1.14l-.92-.83 1.35-1.48Zm-27.09-2.63 1.48 1.35-2.01 2.22-1.48-1.34 2.01-2.23Zm22.64-1.4 2.22 2.01L92 20.97l-2.22-2.02 1.34-1.48ZM72.5 14.43l1.48 1.34-2.01 2.22-1.48-1.34 2-2.22Zm14.16-.99 2.23 2.01-1.35 1.49-2.22-2.02 1.34-1.48Zm-9.05-2.96.58 1.91c-.82.25-1.59.68-2.24 1.26l-1.33-1.5a7.96 7.96 0 0 1 3-1.67Zm3.44-.26c1.14.16 2.24.56 3.22 1.2l-1.09 1.67a5.96 5.96 0 0 0-2.4-.9l.27-1.97Zm60.9-5.02a8 8 0 0 1 10.3-4.7L258.8 40.35a8 8 0 0 1 4.7 10.3l-4.14 11.06a8 8 0 0 1-10.3 4.69L142.51 26.55a8 8 0 0 1-4.69-10.3l4.14-11.05Zm9.6-2.82a6 6 0 0 0-7.72 3.52l-4.14 11.06a6 6 0 0 0 3.52 7.72L249.76 64.5a6 6 0 0 0 7.72-3.51l4.14-11.06a6 6 0 0 0-3.52-7.72L151.55 2.38Z"/><path d="m245.11 53.98-3.36-6.99 1-.44 2.88 6.02 6.13-2.65.47.98z"/></svg>
