<svg xmlns="http://www.w3.org/2000/svg" viewBox="0 0 80 80"><path fill="url(#a)" d="M40 78.34 11.13 61.67 40 45.01l28.86 16.66L40 78.34Z"/><path fill="url(#b)" d="M40 68.35 11.12 51.68l.01-33.35L40 34.99v33.36Z"/><path fill="url(#c)" d="M68.88 51.68 40 68.35V35l28.87-16.67v33.35Z"/><path fill="url(#d)" d="M40 35 11.13 18.32 40 1.66l28.87 16.67L40 34.99Z"/><path fill="#C6C6C6" d="m25.97 26.67 28.67-16.55-.42-.24-28.68 16.56.43.23Z"/><path fill="#fff" d="M40 35.24 11.13 18.57v-.24l.21-.12 28.87 16.66L40 35v.24Zm-18.5-1.91-8.2-4.73v-5.69l8.2 4.74v5.68Z"/><defs><linearGradient id="a" x1="18.35" x2="61.65" y1="74.17" y2="49.17" gradientUnits="userSpaceOnUse"><stop stop-color="#525252" stop-opacity=".05"/><stop offset="1" stop-opacity=".1"/></linearGradient><linearGradient id="b" x1="15.16" x2="40.31" y1="43.34" y2="43.34" gradientUnits="userSpaceOnUse"><stop stop-color="#E0E0E0"/><stop offset="1" stop-color="#C6C6C6"/></linearGradient><linearGradient id="c" x1="40" x2="68.88" y1="43.34" y2="43.34" gradientUnits="userSpaceOnUse"><stop stop-color="#A8A8A8"/><stop offset="1" stop-color="#C6C6C6"/></linearGradient><linearGradient id="d" x1="18.35" x2="61.65" y1="30.83" y2="5.83" gradientUnits="userSpaceOnUse"><stop stop-color="#F4F4F4"/><stop offset="1" stop-color="#E0E0E0"/></linearGradient></defs></svg>