<svg width="197" height="44" viewBox="0 0 197 44" fill="none" xmlns="http://www.w3.org/2000/svg">
<path d="M178.264 44C175.914 44 173.551 43.096 171.755 41.3131C168.169 37.7412 168.169 31.9218 171.755 28.3498L187.471 12.6934V34.8283C187.471 37.3582 186.438 39.6496 184.774 41.3131C183.886 42.1983 182.871 42.8637 181.787 43.3032C180.71 43.7489 179.519 44 178.264 44Z" fill="#231F20"/>
<path d="M162.044 27.8355C159.693 27.8355 157.33 26.9315 155.534 25.1486C153.738 23.3658 152.837 21.0242 152.837 18.6638C152.837 17.4648 153.076 16.3097 153.505 15.2488C153.952 14.1251 154.633 13.083 155.534 12.179C157.198 10.5217 159.504 9.49219 162.044 9.49219H184.264L168.547 25.1486C166.751 26.9378 164.407 27.8355 162.038 27.8355H162.044Z" fill="#231F20"/>
<path d="M191.581 13.2273C190.346 11.9969 190.346 9.98804 191.581 8.75134C192.816 7.51465 194.832 7.52092 196.074 8.75134C197.315 9.98176 197.309 11.9906 196.074 13.2273C194.839 14.464 192.822 14.4577 191.581 13.2273Z" fill="#231F20"/>
<path d="M183.722 5.39877C182.487 4.16836 182.487 2.15951 183.722 0.922814C184.957 -0.307605 186.974 -0.307605 188.215 0.922814C189.451 2.15323 189.451 4.16208 188.215 5.39877C186.98 6.62919 184.964 6.62919 183.722 5.39877Z" fill="#231F20"/>
<path d="M0 9.62402H15.6599C21.237 9.62402 24.6274 13.0516 24.6274 18.2683C24.6274 23.4851 21.6718 25.3181 18.5651 25.5127V25.8015C21.5206 25.8517 25.8877 27.9234 25.8877 33.6737C25.8877 39.085 22.1508 43.335 17.1598 43.335H0V9.62402ZM6.40261 23.6797H14.305C16.6304 23.6797 17.9916 22.33 17.9916 20.1077V18.6073C17.9916 16.3348 16.6367 15.0354 14.305 15.0354H6.40261V23.6797ZM6.40261 37.9299H15.3259C17.7521 37.9299 19.2015 36.6242 19.2015 34.2575V32.6128C19.2015 30.2461 17.7458 28.8964 15.3259 28.8964H6.40261V37.9299Z" fill="#231F20"/>
<path d="M30.059 30.6791C30.059 22.7128 34.3758 17.54 41.793 17.54C49.6954 17.54 53.3315 23.3343 53.3315 30.2397V32.2674H36.5058V32.8952C36.5058 36.5174 38.5916 38.9782 42.6626 38.9782C45.719 38.9782 47.5591 37.5281 49.1093 35.5506L52.4556 39.267C50.3697 42.117 46.6831 43.9061 41.982 43.9061C34.5144 43.9061 30.0527 38.7396 30.0527 30.6729L30.059 30.6791ZM36.5058 28.0739V28.4569H46.8785V28.0237C46.8785 24.5459 45.0825 22.1792 41.8875 22.1792C38.6925 22.1792 36.5058 24.5961 36.5058 28.0739Z" fill="#231F20"/>
<path d="M57.1127 30.6791C57.1127 22.7128 61.4295 17.54 68.8467 17.54C76.7491 17.54 80.3852 23.3343 80.3852 30.2397V32.2674H63.5595V32.8952C63.5595 36.5174 65.6454 38.9782 69.7163 38.9782C72.7727 38.9782 74.6128 37.5281 76.163 35.5506L79.5093 39.267C77.4234 42.117 73.7432 43.9061 69.0357 43.9061C61.5681 43.9061 57.1064 38.7396 57.1064 30.6729L57.1127 30.6791ZM63.5595 28.0739V28.4569H73.9322V28.0237C73.9322 24.5459 72.1362 22.1792 68.9412 22.1792C65.7462 22.1792 63.5595 24.5961 63.5595 28.0739Z" fill="#231F20"/>
<path d="M107.194 43.335L104.478 34.7409H92.4538L89.7882 43.335H83.291L94.6342 9.62402H102.587L113.836 43.335H107.194ZM98.5665 15.4183H98.3271L94.0103 29.2793H102.934L98.5728 15.4183H98.5665Z" fill="#231F20"/>
<path d="M117.428 43.335V38.2187H121.889V14.7403H117.428V9.62402H132.798V14.7403H128.286V38.2124H132.798V43.3287H117.428V43.335Z" fill="#231F20"/>
</svg>
