<svg xmlns="http://www.w3.org/2000/svg" viewBox="0 0 544 256"><path fill="currentColor" d="M148.233 136.444a12.92 12.92 0 0 1 8.33-5.347c7.013-1.264 13.753 3.417 15.017 10.43l5.538 30.727-25.64-17.81a12.896 12.896 0 0 1-5.347-8.328 12.697 12.697 0 0 1 .116-5.132 13.019 13.019 0 0 1 1.986-4.54Zm22.583 26.003-3.625-20.111c-.828-4.594-5.242-7.66-9.835-6.832-3.414.616-6 3.245-6.74 6.423a8.479 8.479 0 0 0 3.424 8.867l16.776 11.653Zm9.15-31.738a12.92 12.92 0 0 1 8.328-5.346 12.878 12.878 0 0 1 9.671 2.102 12.69 12.69 0 0 1 3.512 3.66c.89 1.379 1.51 2.949 1.835 4.669a12.898 12.898 0 0 1-2.102 9.672l-17.809 25.64-5.538-30.725a12.881 12.881 0 0 1 2.102-9.672Zm17.748 2.826c-1.803-2.8-5.168-4.404-8.644-3.778-4.593.828-7.659 5.242-6.83 9.835l3.624 20.11 11.665-16.793c2.01-2.894 1.95-6.601.18-9.406l.005.032Zm-24.498 43.042a4.468 4.468 0 0 1 5.183 3.6 4.467 4.467 0 0 1-3.6 5.183 4.467 4.467 0 0 1-5.183-3.6 4.47 4.47 0 0 1 3.6-5.183Zm15.364-2.77a4.468 4.468 0 0 1 5.183 3.6 4.469 4.469 0 0 1-3.6 5.184 4.468 4.468 0 0 1-5.183-3.6 4.467 4.467 0 0 1 3.6-5.183ZM15.834 19.153c23.013-3.666 47.059-4.468 69.57-.615 22.757 3.896 41.98 12.334 56.509 26.122 17.077 16.206 27.12 39.315 28.988 70.058l-1.996.122c-1.838-30.255-11.673-52.886-28.37-68.73-14.211-13.486-33.074-21.766-55.47-25.6-22.263-3.812-46.102-3.016-68.916.618-4.245.676-8.092 1.4-11.472 2.124l-1.44.315c-.302.068-.592.133-.87.197l-1.587.378-.279.07L0 22.276l.666-.165.443-.106c.9-.214 1.953-.452 3.149-.708a223.376 223.376 0 0 1 11.576-2.144Zm314.81 126.47c13.795-10.816 31.613-15.316 49.351-13.35 16.706 1.851 31.55 9.334 39.523 20.086 2.682 3.617 4.52 7.483 5.478 11.523l.13.574 2.413 1.273c3.366 1.784 7.084 3.787 11.252 6.051l4.69 2.547 1.609.869c26.04 14.025 40.418 19.91 54.626 20.716 18.524 1.052 32.165-8.654 41.57-32.198l1.858.742c-9.71 24.307-24.115 34.556-43.541 33.453-14.752-.838-29.447-6.903-56.258-21.382l-8.951-4.855a1109.48 1109.48 0 0 0-7.417-3.977l-1.43-.757.037.304c.925 8.095-1.568 16.78-7.747 25.495l-.312.435c-10.386 14.366-22.552 22.656-35.17 24.882-11.192 1.974-22.178-1.02-30.521-7.86-8.129-6.662-12.885-16.308-12.706-26.282.197-10.993 6.246-21.502 18.008-29.848 10.02-7.11 22.42-7.675 37.99-2.825.815.254 1.618.513 2.417.779l.683.23.682.233.68.238.962.345c6.098 2.216 12.296 5.044 21.083 9.574l1.122.579-.044-.157c-.924-3.192-2.447-6.258-4.545-9.162l-.255-.348c-7.615-10.27-21.95-17.495-38.136-19.29-17.237-1.91-34.532 2.458-47.897 12.937-15.274 11.976-24.833 31.223-26.945 57.353l-.062.794c-1.675 22.445-6.32 39.03-13.613 50.284l-1.678-1.087c6.988-10.784 11.515-26.752 13.225-48.414l.072-.932c2.022-27.073 11.876-47.112 27.767-59.572Zm63.887 7.526c-15.03-4.683-26.807-4.145-36.237 2.546-11.265 7.993-16.981 17.924-17.166 28.252-.168 9.344 4.305 18.415 11.974 24.701 7.897 6.474 18.295 9.308 28.906 7.436 12.077-2.13 23.8-10.119 33.897-24.083 6.46-8.935 8.846-17.736 7.509-25.84l-.066-.38-2.456-1.275c-7.95-4.102-13.758-6.801-19.268-8.906l-.676-.256c-.562-.211-1.122-.416-1.682-.616l-.671-.237c-.672-.235-1.344-.464-2.02-.687l-.677-.222c-.453-.146-.908-.29-1.367-.433Z"/></svg>
