<svg xmlns="http://www.w3.org/2000/svg" viewBox="0 0 64 64"><path fill="currentColor" d="M28.804 16.177v31.22c0 3.564-1.435 6.796-3.784 9.146a12.92 12.92 0 0 1-9.145 3.784 12.882 12.882 0 0 1-9.146-3.784 12.694 12.694 0 0 1-2.806-4.226c-.631-1.514-.962-3.17-.978-4.92 0-3.31 1.261-6.622 3.784-9.145l22.075-22.075Zm6.387-.015 22.075 22.075a12.893 12.893 0 0 1 3.785 9.146c0 1.797-.363 3.484-1.025 5.03a13.026 13.026 0 0 1-2.76 4.115 12.92 12.92 0 0 1-9.145 3.784c-7.127 0-12.93-5.802-12.93-12.93v-31.22Zm-10.833 10.8-14.46 14.46c-2.49 2.49-3.09 6.149-1.844 9.224v-.032c1.277 3.075 4.304 5.25 7.836 5.25 4.668 0 8.468-3.8 8.468-8.467V26.962Zm15.295-.03v20.435c0 4.667 3.8 8.467 8.468 8.467 3.469 0 6.48-2.128 7.773-5.124a8.48 8.48 0 0 0-1.797-9.335L39.653 26.932Zm.145-23.257a4.468 4.468 0 0 1 4.463 4.462 4.468 4.468 0 0 1-4.463 4.463 4.468 4.468 0 0 1-4.462-4.463 4.468 4.468 0 0 1 4.462-4.462Zm-15.61 0a4.468 4.468 0 0 1 4.462 4.462 4.468 4.468 0 0 1-4.463 4.463 4.468 4.468 0 0 1-4.462-4.463 4.468 4.468 0 0 1 4.462-4.462Z"/></svg>
