<svg width="410" height="82" viewBox="0 0 410 82" fill="none" xmlns="http://www.w3.org/2000/svg">
<path d="M41 81C63.0914 81 81 63.0914 81 41C81 18.9086 63.0914 1 41 1C18.9086 1 1 18.9086 1 41C1 63.0914 18.9086 81 41 81Z" stroke="#8D8D8D" stroke-width="0.35" stroke-miterlimit="10"/>
<path d="M49.8334 81C71.9248 81 89.8334 63.0914 89.8334 41C89.8334 18.9086 71.9248 1 49.8334 1C27.742 1 9.83337 18.9086 9.83337 41C9.83337 63.0914 27.742 81 49.8334 81Z" stroke="#8D8D8D" stroke-width="0.35" stroke-miterlimit="10"/>
<path d="M64.0084 81C86.0998 81 104.008 63.0914 104.008 41C104.008 18.9086 86.0998 1 64.0084 1C41.917 1 24.0084 18.9086 24.0084 41C24.0084 63.0914 41.917 81 64.0084 81Z" stroke="#8D8D8D" stroke-width="0.35" stroke-miterlimit="10"/>
<path d="M80.9997 81C103.091 81 121 63.0914 121 41C121 18.9086 103.091 1 80.9997 1C58.9084 1 40.9998 18.9086 40.9998 41C40.9998 63.0914 58.9084 81 80.9997 81Z" stroke="#8D8D8D" stroke-width="0.35" stroke-miterlimit="10"/>
<path d="M107.598 81C129.689 81 147.598 63.0914 147.598 41C147.598 18.9086 129.689 1 107.598 1C85.5065 1 67.5979 18.9086 67.5979 41C67.5979 63.0914 85.5065 81 107.598 81Z" stroke="#8D8D8D" stroke-width="0.35" stroke-miterlimit="10"/>
<path d="M150.094 81C172.185 81 190.094 63.0914 190.094 41C190.094 18.9086 172.185 1 150.094 1C128.003 1 110.094 18.9086 110.094 41C110.094 63.0914 128.003 81 150.094 81Z" stroke="#8D8D8D" stroke-width="0.35" stroke-miterlimit="10"/>
<path d="M192 81C214.091 81 232 63.0914 232 41C232 18.9086 214.091 1 192 1C169.909 1 152 18.9086 152 41C152 63.0914 169.909 81 192 81Z" stroke="#8D8D8D" stroke-width="0.35" stroke-miterlimit="10"/>
<path d="M257.15 81C279.241 81 297.15 63.0914 297.15 41C297.15 18.9086 279.241 1 257.15 1C235.058 1 217.15 18.9086 217.15 41C217.15 63.0914 235.058 81 257.15 81Z" stroke="#8D8D8D" stroke-width="0.35" stroke-miterlimit="10"/>
<path d="M369.484 81C391.576 81 409.484 63.0914 409.484 41C409.484 18.9086 391.576 1 369.484 1C347.393 1 329.484 18.9086 329.484 41C329.484 63.0914 347.393 81 369.484 81Z" stroke="#8D8D8D" stroke-width="0.35" stroke-miterlimit="10"/>
<path d="M81.0002 45.5456C83.5106 45.5456 85.5458 43.5105 85.5458 41.0001C85.5458 38.4896 83.5106 36.4545 81.0002 36.4545C78.4897 36.4545 76.4546 38.4896 76.4546 41.0001C76.4546 43.5105 78.4897 45.5456 81.0002 45.5456Z" fill="#0F62FE"/>
</svg>
