<svg viewBox="0 0 212 132" fill="none" xmlns="http://www.w3.org/2000/svg">
      <path
        d="M168.175 44.8195C170.448 44.8195 172.271 46.6421 172.271 48.9151C172.271 51.1882 170.448 53.0107 168.175 53.0107C165.902 53.0107 164.08 51.1882 164.08 48.9151C164.08 46.6421 165.902 44.8195 168.175 44.8195Z"
        fill="black"
      />
      <path
        d="M180.421 44.8195C182.694 44.8195 184.517 46.6421 184.517 48.9151C184.517 51.1882 182.694 53.0107 180.421 53.0107C178.148 53.0107 176.325 51.1882 176.325 48.9151C176.325 46.6421 178.148 44.8195 180.421 44.8195Z"
        fill="black"
      />
      <path
        d="M179.48 7.05673C181.405 5.11131 184.088 3.88262 187.037 3.88262C189.985 3.88262 192.648 5.09083 194.593 7.05673C195.596 8.06015 196.354 9.20693 196.866 10.4561C197.419 11.7667 197.726 13.1797 197.726 14.6951C197.726 17.4596 196.682 20.2241 194.593 22.3334L176.347 40.7637L176.347 14.6951C176.347 11.7257 177.555 9.02262 179.48 7.05673Z"
        fill="black"
      />
      <path
        d="M172.271 14.6794L172.271 40.748L154.025 22.3178C151.936 20.2085 150.892 17.444 150.892 14.6794C150.892 13.1845 151.199 11.7511 151.752 10.4405C152.264 9.21178 153.022 8.04453 154.025 7.0411C155.95 5.09568 158.633 3.88747 161.581 3.88747C164.53 3.88747 167.192 5.09568 169.138 7.06158C171.083 9.02748 172.271 11.7101 172.271 14.6999L172.271 14.6794Z"
        fill="black"
      />
      <path
        d="M141.689 51.4638C141.689 49.1907 143.512 47.3682 145.785 47.3682C148.058 47.3682 149.88 49.1907 149.88 51.4638C149.88 53.7369 148.058 55.5594 145.785 55.5594C143.512 55.5594 141.689 53.7369 141.689 51.4638Z"
        fill="black"
      />
      <path
        d="M141.691 39.2187C141.691 36.9866 143.493 35.1641 145.746 35.1641C147.998 35.1641 149.8 36.9661 149.8 39.2187C149.8 41.4713 147.998 43.2734 145.746 43.2734C143.493 43.2734 141.691 41.4713 141.691 39.2187Z"
        fill="black"
      />
      <path
        d="M137.554 43.3953L137.554 35.2041L100.693 35.2041L100.693 43.3953L137.554 43.3953Z"
        fill="black"
      />
      <path
        d="M137.554 55.6824L137.554 47.4912L100.693 47.4912L100.693 55.6824L137.554 55.6824Z"
        fill="black"
      />
      <path
        d="M115.129 28.9587C113.819 27.6481 113.02 25.846 113.02 23.8597C113.02 21.8733 113.819 20.0712 115.129 18.7606C115.805 18.0848 116.563 17.5729 117.402 17.2248C118.262 16.8561 119.225 16.6514 120.228 16.6514C122.071 16.6514 123.914 17.3476 125.327 18.7606L137.635 31.0679L120.228 31.0679C118.242 31.0679 116.44 30.2693 115.129 28.9587Z"
        fill="black"
      />
      <path
        d="M120.332 74.0311C118.509 74.0311 116.687 73.3348 115.294 71.9423C113.902 70.5498 113.205 68.7272 113.205 66.9047C113.205 65.9627 113.39 65.0617 113.717 64.2425C114.065 63.3825 114.598 62.5633 115.294 61.8671C116.584 60.577 118.366 59.7783 120.332 59.7783L137.554 59.7783L125.369 71.9628C123.977 73.3553 122.154 74.0516 120.332 74.0516L120.332 74.0311Z"
        fill="black"
      />
      <path
        d="M71.0111 75.0795C71.0111 77.3518 69.1885 79.1738 66.9154 79.1738C64.6424 79.1738 62.8198 77.3518 62.8198 75.0795C62.8198 72.8071 64.6424 70.9852 66.9154 70.9852C69.1885 70.9852 71.0111 72.8071 71.0111 75.0795Z"
        fill="black"
      />
      <path
        d="M71.0092 87.3011C71.0092 89.5325 69.2072 91.3545 66.9546 91.3545C64.702 91.3545 62.8999 89.553 62.8999 87.3011C62.8999 85.0492 64.702 83.2477 66.9546 83.2477C69.2072 83.2477 71.0092 85.0492 71.0092 87.3011Z"
        fill="black"
      />
      <path
        d="M112.031 99.5848L112.031 107.773L75.1704 87.3017L75.1704 79.1131L112.031 99.5848Z"
        fill="black"
      />
      <path
        d="M92.4731 60.7703C94.2956 60.7703 96.1182 61.4663 97.5107 62.8584C98.9032 64.2504 99.5994 66.0724 99.5994 67.8944C99.5994 68.8361 99.4151 69.7369 99.0875 70.5557C98.7394 71.4155 98.2069 72.2344 97.5107 72.9304C96.2205 74.2202 94.4389 75.0186 92.4731 75.0186L75.251 75.0186L87.4354 62.8379C88.828 61.4458 90.6505 60.7498 92.4731 60.7498L92.4731 60.7703Z"
        fill="black"
      />
      <path
        d="M75.1465 108.898L75.1465 91.6817L87.331 103.862C88.7235 105.254 89.4197 107.076 89.4197 108.898C89.4197 109.901 89.2149 110.843 88.8463 111.703C88.4982 112.522 87.9863 113.279 87.331 113.955C86.0408 115.245 84.2592 116.043 82.2933 116.043C80.3274 116.043 78.5458 115.245 77.2557 113.955C75.9656 112.665 75.167 110.884 75.167 108.919L75.1465 108.898Z"
        fill="black"
      />
      <path
        d="M182.5 82.5292C182.5 84.8023 180.677 86.6249 178.404 86.6249C176.131 86.6249 174.309 84.8023 174.309 82.5292C174.309 80.2562 176.131 78.4336 178.404 78.4336C180.677 78.4336 182.5 80.2562 182.5 82.5292Z"
        fill="black"
      />
      <path
        d="M182.5 70.2421C182.5 72.5152 180.677 74.3378 178.404 74.3378C176.131 74.3378 174.309 72.5152 174.309 70.2421C174.309 67.969 176.131 66.1465 178.404 66.1465C180.677 66.1465 182.5 67.969 182.5 70.2421Z"
        fill="black"
      />
      <path
        d="M188.643 94.9391L188.643 80.502L198.841 90.7001C200.008 91.8674 200.582 93.4032 200.582 94.9186C200.582 95.7582 200.418 96.5364 200.111 97.2736C199.824 97.9494 199.394 98.6047 198.841 99.1576C197.756 100.243 196.261 100.919 194.622 100.919C192.984 100.919 191.489 100.243 190.404 99.1576C189.319 98.0723 188.643 96.5774 188.643 94.9391Z"
        fill="black"
      />
      <path
        d="M201.196 88.3661L190.998 78.168L205.435 78.168C207.073 78.168 208.568 78.8437 209.653 79.9291C210.247 80.523 210.677 81.1988 210.985 81.936C211.271 82.6322 211.415 83.3694 211.415 84.1681C211.415 85.704 210.821 87.2194 209.674 88.3866C208.527 89.5539 206.971 90.1273 205.455 90.1273C203.94 90.1273 202.404 89.5539 201.237 88.3866L201.196 88.3661Z"
        fill="black"
      />
      <path
        d="M205.147 74.3382L190.71 74.3382L200.908 64.1401C202.076 62.9728 203.611 62.3994 205.127 62.3994C205.966 62.3994 206.745 62.5632 207.482 62.8704C208.158 63.1571 208.813 63.5872 209.366 64.1401C210.451 65.2254 211.106 66.7203 211.106 68.3586C211.106 69.9968 210.431 71.4918 209.345 72.5771C208.26 73.6625 206.765 74.3382 205.127 74.3382L205.147 74.3382Z"
        fill="black"
      />
      <path
        d="M198.575 61.7851L188.377 71.9833L188.377 57.5461C188.377 55.9078 189.052 54.4129 190.138 53.3276C190.732 52.7337 191.407 52.3037 192.124 52.017C192.82 51.7303 193.558 51.5869 194.356 51.5869C195.892 51.5869 197.408 52.1603 198.575 53.3276C199.742 54.4948 200.315 56.0307 200.315 57.5461C200.315 59.0615 199.742 60.5973 198.575 61.7646L198.575 61.7851Z"
        fill="black"
      />
      <path
        d="M170.212 62.2354L162.021 62.2354L162.021 90.7206L170.212 90.7206L170.212 62.2354Z"
        fill="black"
      />
      <path
        d="M132.474 118.603C134.824 118.603 136.708 120.488 136.708 122.838C136.708 125.188 134.824 127.072 132.474 127.072C130.123 127.072 128.239 125.188 128.239 122.838C128.239 120.488 130.123 118.603 132.474 118.603Z"
        fill="black"
      />
      <path
        d="M145.135 118.604C147.443 118.604 149.327 120.467 149.327 122.796C149.327 125.125 147.464 126.988 145.135 126.988C142.806 126.988 140.943 125.125 140.943 122.796C140.943 120.467 142.806 118.604 145.135 118.604Z"
        fill="black"
      />
      <path
        d="M128.219 105.836L128.219 114.305L149.412 114.305L149.412 105.836L128.219 105.836Z"
        fill="black"
      />
      <path
        d="M128.239 93.1335L128.239 101.603L149.432 101.603L149.432 93.1335L128.239 93.1335Z"
        fill="black"
      />
      <path
        d="M128.239 80.4294L128.239 88.8984L149.433 88.8984L149.433 80.4294L128.239 80.4294Z"
        fill="black"
      />
      <path
        d="M168.615 123.875C168.615 125.781 167.895 127.686 166.434 129.147C164.974 130.608 163.068 131.328 161.163 131.328C160.189 131.328 159.236 131.138 158.389 130.799C157.478 130.439 156.632 129.888 155.891 129.147C154.535 127.792 153.71 125.929 153.71 123.875L153.71 105.879L166.434 118.603C167.895 120.064 168.615 121.97 168.615 123.875Z"
        fill="black"
      />
      <path
        d="M111.429 118.604L124.026 106.006L124.026 123.833C124.026 125.866 123.201 127.708 121.867 129.042C121.147 129.761 120.3 130.312 119.411 130.672C118.564 131.011 117.632 131.201 116.658 131.201C114.774 131.201 112.89 130.481 111.45 129.042C110.01 127.602 109.29 125.717 109.29 123.833C109.29 121.949 110.01 120.064 111.45 118.625L111.429 118.604Z"
        fill="black"
      />
      <path
        d="M58.502 30.6052C58.502 28.2087 60.4236 26.2871 62.8201 26.2871C65.2166 26.2871 67.1382 28.2087 67.1382 30.6052C67.1382 33.0017 65.2166 34.9233 62.8201 34.9233C60.4236 34.9233 58.502 33.0017 58.502 30.6052Z"
        fill="black"
      />
      <path
        d="M58.8468 58.9316C57.7025 60.0759 56.1264 60.7883 54.3992 60.7883C52.672 60.7883 51.0959 60.0759 49.9516 58.9316C49.3686 58.3486 48.9152 57.6793 48.613 56.9452C48.2891 56.1896 48.1164 55.3476 48.1164 54.4624C48.1164 52.8431 48.7425 51.2454 49.9516 50.0147L60.7036 39.2627L60.7036 54.4839C60.7036 56.2112 59.9911 57.7873 58.8468 58.9316Z"
        fill="black"
      />
      <path
        d="M65.0236 54.4625L65.0236 39.2412L75.7757 49.9932C77.0063 51.2239 77.6108 52.8432 77.6108 54.4409C77.6108 55.3261 77.4381 56.1465 77.1143 56.9238C76.812 57.6363 76.3586 58.3271 75.7757 58.9101C74.6314 60.0544 73.0553 60.7669 71.328 60.7669C69.6008 60.7669 68.0247 60.0544 66.8804 58.9101C65.7361 57.7658 65.0236 56.1897 65.0236 54.4625Z"
        fill="black"
      />
      <path
        d="M60.6831 6.72628L60.6831 21.9475L49.9311 11.1955C48.7004 9.96484 48.0959 8.34556 48.0959 6.74787C48.0959 5.86266 48.2686 5.04223 48.5925 4.26497C48.8947 3.55249 49.3481 2.86159 49.9311 2.27865C51.0754 1.13436 52.6515 0.421875 54.3787 0.421875C56.1059 0.421875 57.682 1.13436 58.8263 2.27865C59.9706 3.42294 60.6831 4.99904 60.6831 6.72628Z"
        fill="black"
      />
      <path
        d="M66.8804 2.27865C68.0247 1.13436 69.6008 0.421875 71.328 0.421875C73.0553 0.421875 74.6314 1.13436 75.7757 2.27865C76.3586 2.86159 76.812 3.5309 77.1143 4.26497C77.4381 5.02064 77.6108 5.86266 77.6108 6.74787C77.6108 8.36715 76.9847 9.96484 75.7757 11.1955L65.0236 21.9475L65.0236 6.72628C65.0236 4.99904 65.7361 3.42294 66.8804 2.27865Z"
        fill="black"
      />
      <path
        d="M34.5382 26.5898C33.3939 25.4455 32.6814 23.8694 32.6814 22.1422C32.6814 20.415 33.3939 18.8389 34.5382 17.6946C35.1211 17.1116 35.7904 16.6582 36.5245 16.356C37.2801 16.0321 38.1222 15.8594 39.0074 15.8594C40.6267 15.8594 42.2243 16.4639 43.455 17.6946L54.207 28.4466L38.9858 28.4466C37.2585 28.4466 35.6824 27.7341 34.5382 26.5898Z"
        fill="black"
      />
      <path
        d="M38.9858 32.7646L54.207 32.7646L43.455 43.5167C42.2243 44.7473 40.6051 45.3519 39.0074 45.3519C38.1222 45.3519 37.3017 45.1791 36.5245 44.8553C35.812 44.553 35.1211 44.0996 34.5382 43.5167C33.3939 42.3724 32.703 40.7963 32.703 39.0691C32.703 37.3418 33.4155 35.7657 34.5597 34.6214C35.704 33.4771 37.2801 32.7646 39.0074 32.7646L38.9858 32.7646Z"
        fill="black"
      />
      <path
        d="M86.7226 28.4241L71.5013 28.4241L82.2533 17.6721C83.484 16.4414 85.1033 15.8369 86.701 15.8369C87.5862 15.8369 88.4066 16.0096 89.1839 16.3335C89.8963 16.6358 90.5872 17.0892 91.1702 17.6721C92.3145 18.8164 93.0054 20.3925 93.0054 22.1197C93.0054 23.847 92.2929 25.4231 91.1486 26.5674C90.0043 27.7116 88.4282 28.4241 86.701 28.4241L86.7226 28.4241Z"
        fill="black"
      />
      <path
        d="M91.1921 34.6214C92.3363 35.7657 93.0488 37.3418 93.0488 39.0691C93.0488 40.7963 92.3363 42.3724 91.1921 43.5167C90.6091 44.0996 89.9398 44.553 89.2057 44.8553C88.4501 45.1791 87.608 45.3519 86.7228 45.3519C85.1036 45.3519 83.5059 44.7473 82.2752 43.5167L71.5232 32.7646L86.7444 32.7646C88.4717 32.7646 90.0478 33.4771 91.1921 34.6214Z"
        fill="black"
      />
      <path
        d="M44.2406 78.9968C41.932 78.9968 40.0811 77.1458 40.0811 74.8373C40.0811 72.5287 41.932 70.6777 44.2406 70.6777C46.5491 70.6777 48.4001 72.5287 48.4001 74.8373C48.4001 77.1458 46.5491 78.9968 44.2406 78.9968Z"
        fill="black"
      />
      <path
        d="M31.824 78.9947C29.557 78.9947 27.7061 77.1645 27.7061 74.8767C27.7061 72.589 29.5362 70.7588 31.824 70.7588C34.1117 70.7588 35.9419 72.589 35.9419 74.8767C35.9419 77.1645 34.1117 78.9947 31.824 78.9947Z"
        fill="black"
      />
      <path
        d="M35.9418 120.632H27.6436L40.0806 83.1963H48.3788L35.9418 120.632Z"
        fill="black"
      />
      <path
        d="M23.4633 120.632H15.165L27.602 83.1963H35.9003L23.4633 120.632Z"
        fill="black"
      />
      <path
        d="M4.70361 73.8784C4.70361 72.0066 5.41073 70.1348 6.84577 68.6998C8.28081 67.2647 10.1526 66.5576 12.0244 66.5576C12.9811 66.5576 13.917 66.7448 14.7489 67.0776C15.6432 67.4311 16.4751 67.9719 17.203 68.6998C18.5341 70.0308 19.3452 71.861 19.3452 73.8784V91.5564L6.84577 79.057C5.41073 77.622 4.70361 75.7502 4.70361 73.8784Z"
        fill="black"
      />
      <path
        d="M63.062 117.488C63.062 119.359 62.3548 121.231 60.9198 122.666C59.4848 124.101 57.613 124.808 55.7412 124.808C54.7845 124.808 53.8486 124.621 53.0167 124.288C52.1224 123.935 51.2905 123.394 50.5626 122.666C49.2315 121.335 48.4204 119.505 48.4204 117.488V99.8096L60.9198 112.309C62.3548 113.744 63.062 115.616 63.062 117.488Z"
        fill="black"
      />
    </svg>