<svg width="144" height="44" viewBox="0 0 144 44" fill="none" xmlns="http://www.w3.org/2000/svg">
<g clip-path="url(#clip0_984_9004)">
<path d="M121.442 43.3098C119.137 43.3098 116.82 42.42 115.059 40.6651C111.543 37.1491 111.543 31.421 115.059 27.9051L130.47 12.4941V34.282C130.47 36.7722 129.456 39.0276 127.825 40.6651C126.954 41.5364 125.959 42.1914 124.896 42.6239C123.839 43.0626 122.672 43.3098 121.442 43.3098Z" fill="#231F20"/>
<path d="M105.537 27.3984C103.232 27.3984 100.915 26.5086 99.1535 24.7537C97.3924 22.9988 96.5088 20.694 96.5088 18.3706C96.5088 17.1904 96.7436 16.0534 97.1638 15.0091C97.6025 13.903 98.2699 12.8773 99.1535 11.9875C100.785 10.3562 103.046 9.34277 105.537 9.34277H127.324L111.914 24.7537C110.152 26.5148 107.854 27.3984 105.53 27.3984H105.537Z" fill="#231F20"/>
<path d="M134.498 13.0196C133.287 11.8084 133.287 9.83109 134.498 8.61379C135.709 7.39648 137.687 7.40266 138.904 8.61379C140.121 9.82491 140.115 11.8023 138.904 13.0196C137.693 14.2369 135.715 14.2307 134.498 13.0196Z" fill="#231F20"/>
<path d="M126.793 5.31411C125.582 4.10299 125.582 2.12564 126.793 0.908342C128.004 -0.302781 129.982 -0.302781 131.199 0.908342C132.41 2.11946 132.41 4.09681 131.199 5.31411C129.988 6.52523 128.01 6.52523 126.793 5.31411Z" fill="#231F20"/>
<path d="M0 9.47266H15.6828C21.2688 9.47266 24.6674 12.9206 24.6674 18.1668C24.6674 23.4129 21.7075 25.2543 18.5994 25.4521V25.7425C21.5592 25.7919 25.9341 27.8805 25.9341 33.658C25.9341 39.0957 22.1957 43.3717 17.1967 43.3717H0V9.47266ZM6.40783 23.6045H14.3234C16.6529 23.6045 18.0124 22.2451 18.0124 20.0144V18.5066C18.0124 16.2265 16.6529 14.9165 14.3234 14.9165H6.40783V23.6107V23.6045ZM6.40783 37.9279H15.3429C17.7714 37.9279 19.2297 36.6179 19.2297 34.2389V32.589C19.2297 30.21 17.7714 28.8506 15.3429 28.8506H6.40783V37.9279Z" fill="#231F20"/>
<path d="M30.1045 30.6424C30.1045 22.628 34.4237 17.4375 41.8573 17.4375C49.7729 17.4375 53.4124 23.2645 53.4124 30.2099V32.249H36.5618V32.8793C36.5618 36.5189 38.6503 38.9967 42.7286 38.9967C45.7873 38.9967 47.6349 37.5384 49.1859 35.5487L52.535 39.2871C50.4464 42.1543 46.7574 43.9463 42.0489 43.9463C34.5721 43.9463 30.1045 38.7495 30.1045 30.6424ZM36.5618 28.0225V28.4118H46.9552V27.973C46.9552 24.4756 45.157 22.0966 41.9562 22.0966C38.7554 22.0966 36.5679 24.525 36.5679 28.0225H36.5618Z" fill="#231F20"/>
<path d="M57.2012 30.6424C57.2012 22.628 61.5204 17.4375 68.954 17.4375C76.8696 17.4375 80.5091 23.2645 80.5091 30.2099V32.249H63.6584V32.8793C63.6584 36.5189 65.747 38.9967 69.8253 38.9967C72.884 38.9967 74.7316 37.5384 76.2825 35.5487L79.6317 39.2871C77.5431 42.1543 73.8541 43.9463 69.1456 43.9463C61.6687 43.9463 57.2012 38.7495 57.2012 30.6424ZM63.6584 28.0225V28.4118H74.0518V27.973C74.0518 24.4756 72.2537 22.0966 69.0529 22.0966C65.852 22.0966 63.6646 24.525 63.6646 28.0225H63.6584Z" fill="#231F20"/>
</g>
<defs>
<clipPath id="clip0_984_9004">
<rect width="144" height="43.9464" fill="white"/>
</clipPath>
</defs>
</svg>
