<svg width="12" height="16" viewBox="0 0 12 16" fill="none" xmlns="http://www.w3.org/2000/svg">
<path d="M4.80762 6.29008L6.20816 7.98237L10.3332 3.13668C10.5514 2.84619 10.6546 2.69352 10.5513 2.44629C10.4968 2.31524 10.4062 2.20229 10.2902 2.12049C10.1741 2.03868 10.0374 1.99137 9.89559 1.98398C9.81506 1.9794 9.73445 1.99142 9.65875 2.01927C9.58306 2.04713 9.51385 2.09023 9.4555 2.14591L4.80762 6.29008Z" fill="#BDB9B4"/>
<path d="M8.50122 7.09914L1.94593 0.810865C1.81608 0.650113 1.63344 0.540612 1.43047 0.501829C1.29604 0.498711 1.16375 0.53589 1.05063 0.608589C0.937503 0.681287 0.848697 0.78618 0.795686 0.909759C0.692468 1.15699 0.766655 1.33066 0.99287 1.65515L6.2094 7.98545L2.32665 12.7545C2.22558 12.859 2.15391 12.9883 2.11886 13.1294C2.08381 13.2705 2.08661 13.4183 2.12701 13.558C2.17933 13.6851 2.26852 13.7937 2.38308 13.8697C2.49764 13.9457 2.63235 13.9857 2.76983 13.9845C2.85863 13.9826 2.94596 13.9614 3.02579 13.9225C3.10561 13.8835 3.17602 13.8277 3.23214 13.7589L8.49749 8.86373C8.6211 8.75249 8.72003 8.61659 8.78785 8.46476C8.85567 8.31292 8.89086 8.14855 8.89121 7.98226C8.89156 7.81597 8.85707 7.65145 8.78989 7.49934C8.72271 7.34722 8.62436 7.21089 8.50122 7.09914Z" fill="#B31B1B"/>
<path d="M11.465 14.3225L6.19587 7.97185L4.79597 6.28018L3.93744 7.05524C3.81458 7.17414 3.71689 7.31653 3.65017 7.47394C3.58345 7.63136 3.54907 7.80058 3.54907 7.97154C3.54907 8.14251 3.58345 8.31173 3.65017 8.46914C3.71689 8.62656 3.81458 8.76893 3.93744 8.88783L10.62 15.3275C10.6788 15.3888 10.7504 15.4362 10.8297 15.4664C10.909 15.4965 10.9941 15.5086 11.0787 15.5018C11.2068 15.4997 11.3313 15.4593 11.4363 15.3858C11.5413 15.3124 11.6218 15.2092 11.6677 15.0896C11.7057 14.9553 11.7069 14.8133 11.6712 14.6783C11.6356 14.5434 11.5643 14.4205 11.465 14.3225Z" fill="#BDB9B4"/>
</svg>
