<svg xmlns="http://www.w3.org/2000/svg" viewBox="0 0 256 256"><circle cx="128" cy="128" r="108" fill="#D53"/><circle cx="128" cy="128" r="96" fill="none" stroke="#FFF" stroke-width="7"/><path fill="#DDD" d="M96 73c-30 7-19 49-19 49l19 93 7 3M89 55h-8l11 4s-11 0-11 7c24-1 35 5 35 5"/><path fill="#FFF" d="M153 223s-24-38-24-63c0-47 31-7 31-44s-31-46-31-46c-15-19-44-15-44-15l7 4s-7 2-9 4 19-3 28 5c-37 3-31 33-31 33l21 120"/><path fill="#FC0" d="m153 127 38-10c34 5-29 24-33 23-30-5-21 20 15 12s9 20-24 9c-47-13-22-36 4-34"/><path fill="#6B5" d="m143 206 2-3c22 8 23 11 22-9s0-20-23-3c0-5-13-3-15 0-21-9-23-12-22 2 2 29 1 24 21 14"/><path fill="#4A4" d="M127 195v12c1 2 17 2 17-2s-8 3-13 1-2-13-2-13"/><path fill="#148" d="M105 96c-5-6-18-1-15 7 1-4 8-10 15-7m32 0c1-6 11-7 14-1-4-2-10-2-14 1m-33 16a2 2 0 1 1 0 1m-8 3a7 7 0 1 0 0-1m52-6a2 2 0 1 1 0 1m-6 3a6 6 0 1 0 0-1"/></svg>