<svg xmlns="http://www.w3.org/2000/svg" width="16" height="16" viewBox="0 0 16 16">
  <path fill="#4285F4" d="M14.735 8.156c0-.487-.044-.956-.125-1.406H8.135v2.662h3.7a3.17 3.17 0 0 1-1.381 2.07v1.73h2.231c1.3-1.2 2.05-2.962 2.05-5.056Z"/>
  <path fill="#34A853" d="M8.135 14.875c1.856 0 3.412-.613 4.55-1.662l-2.231-1.732c-.613.413-1.394.663-2.319.663-1.788 0-3.306-1.207-3.85-2.832H1.997v1.776a6.868 6.868 0 0 0 6.138 3.787Z"/>
  <path fill="#FBBC05" d="M4.285 9.306A4.12 4.12 0 0 1 4.066 8c0-.456.082-.894.219-1.306V4.919H1.997A6.79 6.79 0 0 0 1.26 8a6.79 6.79 0 0 0 .738 3.081l1.78-1.387.507-.388Z"/>
  <path fill="#EA4335" d="M8.135 3.862c1.012 0 1.912.35 2.631 1.026l1.969-1.97c-1.194-1.112-2.744-1.793-4.6-1.793a6.863 6.863 0 0 0-6.138 3.794l2.288 1.775c.544-1.625 2.062-2.832 3.85-2.832Z"/>
</svg>
