<svg xmlns="http://www.w3.org/2000/svg" viewBox="0 0 16 16"><path fill="#000" d="M4.665 3.8v.246c-.423.04-.624.11-.75.212a.481.481 0 0 0-.19.391c0 .222.104.567.311 1.036l2.782 5.275 1.228-2.352-1.508-3.361c-.175-.398-.413-.642-.485-.73a1.18 1.18 0 0 0-.415-.322 1.514 1.514 0 0 0-.592-.15V3.8h3.592v.246c-.423.04-.624.11-.75.212a.481.481 0 0 0-.19.391c0 .222.104.567.311 1.036l.743 1.57.786-1.504.04-.097c.193-.461.346-.785.346-.971 0-.129-.065-.251-.195-.369-.13-.117-.278-.2-.589-.249l-.054-.01a8.388 8.388 0 0 0-.06-.01V3.8h2.747v.246c-.324.057-.569.159-.735.305-.239.217-.52.548-.704.995l-1.265 2.58 1.435 3.034 2.26-5.209.04-.097c.194-.461.347-.785.347-.971 0-.129-.065-.251-.195-.369-.13-.117-.351-.2-.662-.249l-.054-.01a8.39 8.39 0 0 0-.06-.01V3.8H15v.246c-.324.057-.569.159-.735.305-.239.217-.52.548-.704.995l-3.293 7.658h-.25L8.376 9.342l-1.794 3.662h-.25L2.565 5.247c-.175-.398-.414-.642-.485-.73a1.18 1.18 0 0 0-.415-.322c-.165-.078-.386-.127-.665-.15V3.8h3.665Z"/></svg>
