<svg xmlns="http://www.w3.org/2000/svg" viewBox="0 0 198.11 142" width="198.11" height="142"><g fill="none" fill-rule="evenodd"><rect width="198.11" height="142" fill="#FFF" fill-rule="nonzero" rx="4"/><rect width="78" height="16" x="57" y="8" fill="#F2F4F8" fill-rule="nonzero" rx="4"/><rect width="16" height="16" x="142" y="8" fill="#FFF" fill-rule="nonzero" rx="8"/><path fill="#FFF" fill-opacity=".01" fill-rule="nonzero" d="M144.67 10.67h10.67v10.67h-10.67z" style="mix-blend-mode:multiply"/><path fill="#000" fill-rule="nonzero" d="M150 12a1.67 1.67 0 1 1 0 3.34 1.67 1.67 0 0 1 0-3.34Zm0-.67a2.33 2.33 0 1 0 0 4.66 2.33 2.33 0 0 0 0-4.66Zm3.33 9.34h-.66V19a1.68 1.68 0 0 0-1.03-1.54c-.2-.08-.42-.13-.64-.13h-2a1.67 1.67 0 0 0-1.67 1.67v1.67h-.66V19a2.33 2.33 0 0 1 2.33-2.33h2a2.33 2.33 0 0 1 2.33 2.33v1.67Z"/><g fill-rule="nonzero" transform="translate(40 35)"><rect width="16" height="16" fill="#000" rx="8"/><path fill="#FFF" d="m9.92 10.11-.11-3.28-2.33 2.32a1.44 1.44 0 1 0 2.04 2.04c.29-.28.43-.68.4-1.08ZM4.93 6.6a1.44 1.44 0 1 0 2.04 2.04L9.3 6.3 6 6.2c-.4-.03-.79.1-1.08.4Zm4.24-1.7a.55.55 0 1 1 .77.77.55.55 0 0 1-.77-.77Zm1.29 2.06a.55.55 0 1 1 .77-.77.55.55 0 0 1-.78.77Z"/></g><rect width="95" height="16" x="63" y="35" fill="#F2F4F8" fill-rule="nonzero" rx="4"/><rect width="78" height="16" x="57" y="61" fill="#F2F4F8" fill-rule="nonzero" rx="4"/><rect width="16" height="16" x="142" y="61" fill="#FFF" fill-rule="nonzero" rx="8"/><path fill="#FFF" fill-opacity=".01" fill-rule="nonzero" d="M144.67 63.67h10.67v10.67h-10.67z" style="mix-blend-mode:multiply"/><path fill="#000" fill-rule="nonzero" d="M150 65a1.67 1.67 0 1 1 0 3.34 1.67 1.67 0 0 1 0-3.34Zm0-.67a2.33 2.33 0 1 0 0 4.66 2.33 2.33 0 0 0 0-4.66Zm3.33 9.34h-.66V72a1.68 1.68 0 0 0-1.03-1.54c-.2-.08-.42-.13-.64-.13h-2a1.67 1.67 0 0 0-1.67 1.67v1.67h-.66V72a2.33 2.33 0 0 1 2.33-2.33h2a2.33 2.33 0 0 1 2.33 2.33v1.67Z"/><g fill-rule="nonzero" transform="translate(40 88)"><rect width="16" height="16" fill="#000" rx="8"/><path fill="#FFF" d="m9.92 10.11-.11-3.28-2.33 2.32a1.44 1.44 0 1 0 2.04 2.04c.29-.28.43-.68.4-1.08ZM4.93 6.6a1.44 1.44 0 1 0 2.04 2.04L9.3 6.3 6 6.2c-.4-.03-.79.1-1.08.4Zm4.24-1.7a.55.55 0 1 1 .77.77.55.55 0 0 1-.77-.77Zm1.29 2.06a.55.55 0 1 1 .77 0 .55.55 0 0 1-.78 0Z"/></g><rect width="95" height="16" x="63" y="88" fill="#F2F4F8" fill-rule="nonzero" rx="4"/><rect width="117" height="18" x="40.5" y="114.5" stroke="#DDE1E6" rx="3.5"/></g></svg>
